<?xml version="1.0" encoding="UTF-8"?>
<svg xmlns="http://www.w3.org/2000/svg" width="80" height="80" viewBox="0 0 80 80" fill="none">
  <path fill-rule="evenodd" clip-rule="evenodd" d="M43.3334 13.9444C42.5999 13.9444 41.8822 13.7322 41.2667 13.3333L37.9334 16.2222C38.2058 16.8147 38.3248 17.4662 38.2795 18.1167C38.2343 18.7673 38.0261 19.396 37.6743 19.945C37.3224 20.4941 36.8381 20.9458 36.266 21.2587C35.6938 21.5716 35.0522 21.7356 34.4 21.7356C33.7479 21.7356 33.1063 21.5716 32.5341 21.2587C31.962 20.9458 31.4777 20.4941 31.1258 19.945C30.774 19.396 30.5658 18.7673 30.5205 18.1167C30.4753 17.4662 30.5943 16.8147 30.8667 16.2222L27.5334 13.3333C26.9179 13.7322 26.2001 13.9444 25.4667 13.9444C24.7333 13.9444 24.0155 13.7322 23.4 13.3333L20.0667 16.2222C20.456 17.0682 20.5279 18.026 20.2693 18.9206C20.0106 19.8152 19.4386 20.5869 18.6578 21.0945C17.8771 21.6021 16.9397 21.8118 16.0171 21.6852C15.0945 21.5587 14.2482 21.1043 13.633 20.4052C13.0178 19.7061 12.6747 18.8089 12.6665 17.8777C12.6582 16.9465 12.9854 16.0434 13.5882 15.3335C14.1909 14.6236 15.029 14.1544 15.9493 14.0115C16.8695 13.8687 17.8104 14.0618 18.6 14.5555L21.9334 11.6667C21.661 11.0742 21.5419 10.4227 21.5872 9.77212C21.6325 9.12158 21.8406 8.49287 22.1925 7.94382C22.5444 7.39478 23.0286 6.94303 23.6008 6.63014C24.1729 6.31725 24.8146 6.15326 25.4667 6.15326C26.1188 6.15326 26.7605 6.31725 27.3326 6.63014C27.9048 6.94303 28.3891 7.39478 28.7409 7.94382C29.0928 8.49287 29.3009 9.12158 29.3462 9.77212C29.3915 10.4227 29.2724 11.0742 29 11.6667L32.3334 14.5555C32.9488 14.1567 33.6666 13.9444 34.4 13.9444C35.1335 13.9444 35.8512 14.1567 36.4667 14.5555L39.8 11.6667C39.5276 11.0742 39.4086 10.4227 39.4539 9.77212C39.4991 9.12158 39.7073 8.49287 40.0592 7.94382C40.411 7.39478 40.8953 6.94303 41.4675 6.63014C42.0396 6.31725 42.6813 6.15326 43.3334 6.15326C43.9855 6.15326 44.6271 6.31725 45.1993 6.63014C45.7714 6.94303 46.2557 7.39478 46.6076 7.94382C46.9594 8.49287 47.1676 9.12158 47.2129 9.77212C47.2582 10.4227 47.1391 11.0742 46.8667 11.6667L50.2 14.5555C51.0021 14.0483 51.9602 13.8473 52.8985 13.9893C53.8368 14.1314 54.6924 14.6069 55.3085 15.3287C55.9245 16.0506 56.2597 16.9703 56.2525 17.9193C56.2453 18.8682 55.8962 19.7828 55.2693 20.4952C54.6424 21.2076 53.7796 21.6701 52.8393 21.7979C51.899 21.9257 50.9441 21.7102 50.1498 21.1909C49.3555 20.6716 48.775 19.8833 48.5148 18.9707C48.2547 18.0581 48.3323 17.0823 48.7334 16.2222L45.4 13.3333C44.7846 13.7322 44.0668 13.9444 43.3334 13.9444ZM52.2223 16.1889H52.0223V16.1333C51.6186 16.1797 51.2461 16.3729 50.9756 16.6761C50.7052 16.9793 50.5557 17.3714 50.5556 17.7778C50.5401 18.1103 50.6244 18.4398 50.7979 18.7239C50.9713 19.0081 51.2259 19.2337 51.5287 19.3719C51.8316 19.51 52.1688 19.5543 52.4971 19.4991C52.8254 19.4438 53.1295 19.2915 53.3705 19.0619C53.6114 18.8322 53.778 18.5356 53.8489 18.2104C53.9198 17.8851 53.8916 17.5461 53.7681 17.237C53.6446 16.9279 53.4313 16.6629 53.1558 16.4761C52.8803 16.2893 52.5551 16.1892 52.2223 16.1889ZM42.1549 8.82147C41.8423 9.13403 41.6667 9.55796 41.6667 9.99999C41.6668 10.4063 41.8163 10.7984 42.0867 11.1016C42.3572 11.4049 42.7297 11.5981 43.1334 11.6444H43.5334C43.937 11.5981 44.3096 11.4049 44.58 11.1016C44.8505 10.7984 45 10.4063 45 9.99999C45 9.55796 44.8244 9.13403 44.5119 8.82147C44.1993 8.50891 43.7754 8.33332 43.3334 8.33332C42.8913 8.33332 42.4674 8.50891 42.1549 8.82147ZM18.0525 18.7037C18.2356 18.4296 18.3334 18.1074 18.3334 17.7778C18.3388 17.3676 18.1918 16.9701 17.9208 16.6622C17.6498 16.3542 17.2742 16.1579 16.8667 16.1111H16.6667C16.3371 16.1111 16.0148 16.2088 15.7408 16.392C15.4667 16.5751 15.253 16.8354 15.1269 17.14C15.0008 17.4445 14.9678 17.7796 15.0321 18.1029C15.0964 18.4262 15.2551 18.7232 15.4882 18.9563C15.7213 19.1894 16.0182 19.3481 16.3416 19.4124C16.6649 19.4767 17 19.4437 17.3045 19.3176C17.6091 19.1914 17.8693 18.9778 18.0525 18.7037ZM25.7556 11.6222V11.6444C26.1593 11.5981 26.5318 11.4049 26.8022 11.1016C27.0727 10.7984 27.2222 10.4063 27.2223 9.99999C27.2223 9.55796 27.0467 9.13403 26.7341 8.82147C26.4215 8.50891 25.9976 8.33332 25.5556 8.33332C25.1136 8.33332 24.6896 8.50891 24.3771 8.82147C24.0645 9.13403 23.8889 9.55796 23.8889 9.99999C23.8944 10.4025 24.0463 10.7892 24.3163 11.0877C24.5862 11.3863 24.9557 11.5763 25.3556 11.6222H25.7556ZM35.623 18.9563C35.9356 18.6437 36.1111 18.2198 36.1111 17.7778C36.1111 17.3714 35.9616 16.9793 35.6911 16.6761C35.4207 16.3729 35.0481 16.1797 34.6445 16.1333H34.2445C33.8408 16.1797 33.4683 16.3729 33.1978 16.6761C32.9274 16.9793 32.7779 17.3714 32.7778 17.7778C32.7778 18.2198 32.9534 18.6437 33.266 18.9563C33.5785 19.2688 34.0025 19.4444 34.4445 19.4444C34.8865 19.4444 35.3104 19.2688 35.623 18.9563Z" fill="#6100FF"></path>
  <path d="M23.5034 24.5123C23.616 24.2415 23.781 23.9956 23.9889 23.7889L27.7778 20V48.8889H23.3334V25.3667C23.3331 25.0734 23.3909 24.7831 23.5034 24.5123Z" fill="#6100FF"></path>
  <path d="M14.6146 32.29C14.7271 32.0192 14.8921 31.7734 15.1 31.5667L18.8889 27.7778V48.8889H14.4445V33.1444C14.4442 32.8512 14.502 32.5608 14.6146 32.29Z" fill="#6100FF"></path>
  <path d="M32.8778 31.5667C32.6698 31.7734 32.5048 32.0192 32.3923 32.29C32.2798 32.5608 32.222 32.8512 32.2223 33.1444V48.8889H36.6667V27.7778L32.8778 31.5667Z" fill="#6100FF"></path>
  <path d="M50 33.1444V39.4333L54.4445 37.4667V27.7778L50.6556 31.5667C50.4476 31.7734 50.2826 32.0192 50.1701 32.29C50.0576 32.5608 49.9998 32.8512 50 33.1444Z" fill="#6100FF"></path>
  <path d="M41.1111 43.3333V25.3667C41.1109 25.0734 41.1687 24.7831 41.2812 24.5123C41.3937 24.2415 41.5587 23.9956 41.7667 23.7889L45.5556 20V41.3556L41.1111 43.3333Z" fill="#6100FF"></path>
  <path d="M12.7 52.8889L8.88892 56.6667H37.7778V52.2222H14.2778C13.9838 52.2234 13.6929 52.283 13.4221 52.3974C13.1513 52.5119 12.9058 52.6789 12.7 52.8889Z" fill="#6100FF"></path>
  <path fill-rule="evenodd" clip-rule="evenodd" d="M41.1111 56.7333V47.0222L54.4445 41.1111L67.7778 47.0222V56.7333C67.7778 68.8889 54.4445 73.3333 54.4445 73.3333C54.4445 73.3333 41.1111 68.8889 41.1111 56.7333ZM63.3334 56.7333V49.9111L54.4445 45.9778L45.5556 49.9111V56.7333C45.5801 58.5389 46.0257 60.3139 46.8571 61.9168C47.6885 63.5198 48.8827 64.9066 50.3445 65.9667C51.6061 66.9766 52.9822 67.8343 54.4445 68.5222C55.9067 67.8343 57.2829 66.9766 58.5445 65.9667C60.0063 64.9066 61.2004 63.5198 62.0318 61.9168C62.8632 60.3139 63.3089 58.5389 63.3334 56.7333Z" fill="#6100FF"></path>
</svg>
